<svg id="Capa_1" data-name="Capa 1" xmlns="http://www.w3.org/2000/svg" xmlns:xlink="http://www.w3.org/1999/xlink" viewBox="0 0 500 200"><defs><style>.cls-1{fill:#fff;}.cls-2{clip-path:url(#clip-path);}</style><clipPath id="clip-path"><rect class="cls-1" x="115.27" y="39.97" width="42.92" height="26.99"/></clipPath></defs><path class="cls-1" d="M49.72,99A3.47,3.47,0,0,1,54,101.42a37.26,37.26,0,0,0,32,27v-51a10.49,10.49,0,0,0-10.49-10.5H11.34A10.5,10.5,0,0,0,.84,77.41c4.78,93.61-25.76,82.2,74.59,82.16,12.72.22,10.49-15.86,10.49-24.23a44.22,44.22,0,0,1-38.59-32.08A3.45,3.45,0,0,1,49.72,99Zm20.34-4.2c6.06-.09,6,9.53,0,9.44C64,104.36,64,94.74,70.06,94.83Z"/><rect class="cls-1" x="20.84" y="39.97" width="45.07" height="26.99"/><path class="cls-1" d="M64.31,66.91H57.44c3.67-26.56-31.78-26.54-28.1,0H22.46C18.45,31.34,68.33,31.38,64.31,66.91Z"/><path class="cls-1" d="M168.24,66.91c-81.91,4.46-75.19-22.49-74.58,61.52a37.31,37.31,0,0,0,32-27,3.44,3.44,0,0,1,6.62,1.84,44.2,44.2,0,0,1-38.59,32.08c.08,8.34-2.29,24.47,10.49,24.23h64.09a10.5,10.5,0,0,0,10.5-10.49V77.41A10.5,10.5,0,0,0,168.24,66.91Zm-58.71,37.36c-6.07.09-6.08-9.54,0-9.44C115.6,94.74,115.59,104.36,109.53,104.27Z"/><rect class="cls-1" x="115.27" y="39.97" width="42.92" height="26.99"/><g class="cls-2"><path class="cls-1" d="M157.13,66.91h-6.87c3.68-26.56-31.79-26.55-28.11,0h-6.86c-4-35.57,45.87-35.53,41.85,0Z"/></g><path class="cls-1" d="M222.69,66.18V73h-11.2v35.18h-8.42V73h-11.2v-6.8Z"/><path class="cls-1" d="M240.25,73v10.5H254.4v6.71H240.25v11.09h15.93v6.88H231.84v-42h24.34V73Z"/><path class="cls-1" d="M264.8,87.1c-1.51-23.12,34.19-29.87,41-7.88h-9.69c-5.92-11.75-24.14-4.8-22.67,7.88-1.47,12.72,16.79,19.71,22.67,7.81h9.69C299.12,117,263.27,110.2,264.8,87.1Z"/><path class="cls-1" d="M347.86,108.59c-7.67.19-15.63-4.27-15.59-12.54h9.05c1.22,12.19,21.35,1.87,8.69-4.46-5.14-2.1-12.36-2.73-15.76-7.47-11.19-19.15,26.89-26.77,28-6.58H353c-.46-8.37-16.37-5.16-10.7,2.75,5.13,4.37,14.47,3.5,18.55,9.39C366.83,98.38,358.11,109.59,347.86,108.59Z"/><path class="cls-1" d="M407.85,66.18v42H399.4V90.29h-18v17.87H373v-42h8.42V83.45h18V66.18Z"/><path class="cls-1" d="M438.63,108.59c-28.06.86-28.06-43.84,0-43C466.67,64.71,466.65,109.47,438.63,108.59Zm0-7.54c16.94.72,17-28.67,0-27.9C421.53,72.35,421.59,101.8,438.63,101.05Z"/><path class="cls-1" d="M500,79.15C500.3,91,487.33,93,477.8,92v16.13h-8.42v-42C480,66.31,500.38,63.3,500,79.15Zm-15.52,6.07c9,1,9.32-13.07,0-12.2H477.8v12.2Z"/><path class="cls-1" d="M195.33,136.18v7.44h8.08V146h-8.08v7.65h9V156H192.41V133.79h11.94v2.39Z"/><path class="cls-1" d="M225.63,143.12v2.44H212.92v-2.44Z"/><path class="cls-1" d="M234.78,144.89c-.76-11.94,17.3-15.83,21.36-4.62h-3.46c-3.6-7.79-15.8-3.78-15,4.62-.89,8.4,11.35,12.44,15,4.66h3.46C252.07,160.67,234,156.83,234.78,144.89Z"/><path class="cls-1" d="M275.28,156.26c-14.57.44-14.54-23.11,0-22.7C289.87,133.12,289.87,156.73,275.28,156.26Zm0-2.51c10.8.39,10.79-18.06,0-17.68C264.48,135.72,264.48,154.13,275.28,153.75Z"/><path class="cls-1" d="M317.56,134v22h-2.92V139.6L307.33,156h-2l-7.35-16.47V156H295V134h3.12l8.14,18.2,8.19-18.2Z"/><path class="cls-1" d="M349.76,134v22h-2.92V139.6L339.53,156h-2l-7.35-16.47V156h-2.91V134h3.11l8.15,18.2,8.19-18.2Z"/><path class="cls-1" d="M362.34,136.18v7.44h8.08V146h-8.08v7.65h9V156H359.43V133.79h11.93v2.39Z"/><path class="cls-1" d="M392.24,156,387,146.94h-3.49V156h-2.92v-22.2c2.74.16,9.08-.54,11.4.87,5.45,2.43,4.22,11.19-1.81,12L395.7,156Zm-8.78-11.4c3.42,0,9.21.67,9-4.26.25-4.9-5.57-4.17-9-4.16Z"/><path class="cls-1" d="M403.61,144.89c-.76-11.94,17.31-15.83,21.36-4.62h-3.45c-3.6-7.79-15.81-3.78-15,4.62-.89,8.4,11.36,12.44,15,4.66H425C420.9,160.67,402.81,156.83,403.61,144.89Z"/><path class="cls-1" d="M437,136.18v7.44h8.08V146H437v7.65h9V156H434.05V133.79H446v2.39Z"/></svg>